<svg
  xmlns="http://www.w3.org/2000/svg"
  xmlns:xlink="http://www.w3.org/1999/xlink"
  preserveAspectRatio="xMidYMid meet"
  version="1.0"
  viewBox="28.9 56.1 442.2 387.8"
  zoomAndPan="magnify"
  style="fill: rgb(0, 0, 0)"
  original_string_length="3792"
  width="462.8313574265218px"
  height="406.4500829763818px"
>
  <g>
    <g id="__id0_snbzslps26">
      <path
        d="M463.36,166.44L463.36,166.44l-55.92-96.85l3.86-6.69c19.93,34.51,39.86,69.02,59.78,103.54H463.36z M28.91,166.43L88.69,62.9l3.86,6.69l-55.91,96.85H28.91z M384.81,104.77H279.38l-11.51-11.51h-35.75l-11.47,11.47l-105.54,0 l-11.6-20.09l146.48,0V84.6l146.46,0v0L384.81,104.77z M200.01,415.41c-46.99-81.4-93.99-162.8-140.99-244.2h23.23l49.98,86.57 l-4.21,15.73l17.87,30.96l15.73,4.21l50.01,86.62L200.01,415.41z M288.37,395.33l50.02-86.64l15.73-4.21l17.87-30.96l-4.21-15.73 l49.97-86.56h23.18l-70.47,122.05l-70.51,122.13L288.37,395.33z M332.57,67.63l-11.51,11.51H178.94l-11.51-11.51H93.69l-3.87-6.7 c28.1-0.01,56.21-0.01,84.31-0.01l4.81-4.81h142.12l4.81,4.81l84.3,0l0,0l-3.86,6.69v0L332.57,67.63L332.57,67.63z M73.51,230.29 l15.73,4.21l71.06,123.08l-4.21,15.73h0l35.73,61.89l-3.87,6.71c-13.67-23.68-27.34-47.36-41.01-71.05l-6.58-1.76L69.29,246.02 l1.76-6.58L30.03,168.4h7.74L73.51,230.29L73.51,230.29z M426.5,230.29l-15.73,4.21l-71.06,123.08l4.21,15.73h0l-35.73,61.89 l3.86,6.69c13.68-23.68,27.35-47.35,41.02-71.03l6.57-1.76l71.06-123.08l-1.76-6.58l41.01-71.04h-7.73L426.5,230.29z M308.98,443.89h-119.9l-0.01-0.02l3.87-6.71h114.11v0l3.86,6.69l-0.02,0.03H308.98z"
        style="fill: rgb(156, 9, 161)"
      />
    </g>
    <g id="__id1_snbzslps26">
      <path
        d="M297.53,180.83c-12.16-12.16-28.97-19.69-47.53-19.69c-18.56,0-35.37,7.52-47.53,19.69 c-12.16,12.16-19.69,28.97-19.69,47.53c0,18.56,7.52,35.37,19.69,47.53c12.16,12.16,28.97,19.69,47.53,19.69 c18.56,0,35.37-7.52,47.53-19.69c12.16-12.16,19.69-28.97,19.69-47.53C317.22,209.79,309.69,192.99,297.53,180.83 M187.71,163.81 c10.41-10.05,23.24-17.6,37.54-21.7l3.1,14.06c-11.37,3.41-21.61,9.42-30.02,17.35L187.71,163.81z M163.75,203.6 c4.1-14.29,11.65-27.13,21.7-37.54l9.71,10.62c-7.93,8.41-13.94,18.65-17.35,30.02L163.75,203.6z M162.93,250.04 c-1.72-6.94-2.64-14.2-2.64-21.68c0-7.48,0.92-14.74,2.64-21.68l13.72,4.34c-1.31,5.57-2.01,11.37-2.01,17.34 c0,5.97,0.7,11.77,2.01,17.34L162.93,250.04z M185.45,290.65c-10.05-10.41-17.6-23.24-21.7-37.54l14.06-3.1 c3.41,11.37,9.42,21.61,17.35,30.02L185.45,290.65z M225.24,314.6c-14.3-4.1-27.13-11.65-37.54-21.7l10.62-9.71 c8.41,7.93,18.65,13.95,30.02,17.35L225.24,314.6z M271.68,315.42c-6.94,1.72-14.2,2.64-21.68,2.64c-7.48,0-14.74-0.92-21.68-2.64 l4.34-13.72c5.57,1.31,11.37,2.01,17.34,2.01c5.97,0,11.77-0.7,17.34-2.01L271.68,315.42z M312.29,292.9 c-10.41,10.05-23.24,17.6-37.54,21.7l-3.1-14.06c11.37-3.41,21.61-9.42,30.02-17.35L312.29,292.9z M336.25,253.11 c-4.1,14.3-11.65,27.13-21.7,37.54l-9.71-10.62c7.93-8.41,13.95-18.65,17.35-30.02L336.25,253.11z M337.07,206.68 c1.72,6.94,2.64,14.2,2.64,21.68c0,7.48-0.92,14.74-2.64,21.68l-13.72-4.34c1.31-5.57,2.01-11.37,2.01-17.34 c0-5.97-0.7-11.77-2.01-17.34L337.07,206.68z M314.55,166.06c10.05,10.41,17.6,23.24,21.7,37.54l-14.06,3.1 c-3.41-11.37-9.42-21.61-17.35-30.02L314.55,166.06z M274.76,142.11c14.3,4.1,27.13,11.65,37.54,21.7l-10.62,9.71 c-8.41-7.93-18.65-13.95-30.02-17.35L274.76,142.11z M250,138.65c7.48,0,14.74,0.92,21.68,2.64l-4.34,13.72 C261.77,153.7,255.97,153,250,153c-5.97,0-11.77,0.7-17.34,2.01l-4.34-13.72C235.26,139.57,242.52,138.65,250,138.65z M250,159.46 c19.03,0,36.25,7.71,48.72,20.18c12.47,12.47,20.18,29.69,20.18,48.72c0,19.03-7.71,36.25-20.18,48.72 c-12.47,12.47-29.69,20.18-48.72,20.18c-19.02,0-36.25-7.71-48.72-20.18c-12.47-12.47-20.18-29.69-20.18-48.72 c0-19.03,7.71-36.25,20.18-48.72C213.75,167.17,230.97,159.46,250,159.46z"
        style="fill: rgb(223, 206, 84)"
      />
    </g>
  </g>
</svg>
